<svg xmlns="http://www.w3.org/2000/svg" width="22" height="22" viewBox="0 0 22 22" fill="none" stroke="currentColor">
  <path d="M10.42 14.17L16.25 20C16.75 20.484 17.4202 20.7521 18.1161 20.7465C18.812 20.7408 19.4777 20.4619 19.9698 19.9698C20.4619 19.4777 20.7408 18.812 20.7465 18.1161C20.7521 17.4202 20.484 16.75 20 16.25L14.123 10.373M10.42 14.17L12.916 11.14C13.233 10.756 13.656 10.514 14.124 10.374C14.674 10.21 15.287 10.186 15.867 10.234C16.6488 10.3011 17.4346 10.1627 18.1464 9.83231C18.8582 9.50197 19.4712 8.99124 19.9246 8.35081C20.3781 7.71037 20.6562 6.9625 20.7313 6.1814C20.8065 5.4003 20.676 4.61313 20.353 3.898L17.077 7.175C16.5289 7.04826 16.0274 6.77016 15.6296 6.37238C15.2318 5.97459 14.9537 5.4731 14.827 4.925L18.103 1.649C17.3879 1.32596 16.6007 1.19554 15.8196 1.27068C15.0385 1.34582 14.2906 1.62391 13.6502 2.07735C13.0098 2.53079 12.499 3.14381 12.1687 3.8556C11.8383 4.56738 11.6999 5.35317 11.767 6.135C11.858 7.211 11.696 8.399 10.863 9.085L10.761 9.17M10.42 14.17L5.765 19.823C5.53939 20.098 5.2587 20.3227 4.94099 20.4827C4.62329 20.6427 4.27561 20.7344 3.92033 20.7518C3.56505 20.7693 3.21005 20.7122 2.87817 20.5842C2.54629 20.4562 2.24489 20.2602 1.99336 20.0086C1.74184 19.7571 1.54577 19.4557 1.41776 19.1238C1.28976 18.792 1.23266 18.4369 1.25015 18.0817C1.26764 17.7264 1.35932 17.3787 1.51929 17.061C1.67927 16.7433 1.90399 16.4626 2.179 16.237L9.016 10.607L4.909 6.5H3.5L1.25 2.75L2.75 1.25L6.5 3.5V4.909L10.76 9.169L9.015 10.606M17.375 17.375L14.75 14.75M3.867 18.125H3.875V18.133H3.867V18.125Z" stroke="currentColor" stroke-width="1" stroke-linecap="round" stroke-linejoin="round"/>
</svg>
