<svg width="70" height="16" viewBox="0 0 70 16" fill="none" xmlns="http://www.w3.org/2000/svg">
<path fill-rule="evenodd" clip-rule="evenodd" d="M8.78823 3.59412L5.57059 12.6294H3.21765L0 3.59412H2.27059L4.34706 10.3059H4.44118L6.52353 3.59412H8.78823ZM9.4306 12.6294V3.59412H11.56V12.6294H9.4306ZM10.5012 2.31176C9.81883 2.31176 9.26589 1.79412 9.26589 1.15882C9.26589 0.517647 9.81883 0 10.5012 0C11.1777 0 11.7306 0.517647 11.7306 1.15882C11.7306 1.79412 11.1777 2.31176 10.5012 2.31176ZM12.8024 12.6294V11.2765L17.4612 5.43529V5.35882H12.9553V3.59412H20.0671V5.04706L15.6318 10.7882V10.8647H20.22V12.6294H12.8024ZM21.28 12.6294V11.2765L25.9388 5.43529V5.35882H21.433V3.59412H28.5447V5.04706L24.1094 10.7882V10.8647H28.6977V12.6294H21.28ZM35.6341 8.82941V3.59412H37.7636V12.6294H35.6989V11.0235H35.6047C35.193 12.0353 34.24 12.7471 32.8871 12.7471C31.1106 12.7471 29.8753 11.5176 29.8753 9.34706V3.59412H32.0047V9.01765C32.0047 10.1647 32.6871 10.8882 33.7106 10.8882C34.6518 10.8882 35.6341 10.2059 35.6341 8.82941ZM41.7236 12.8118C40 12.8118 38.7 11.8706 38.7 10.0941C38.7 8.05882 40.3765 7.53529 42.1294 7.34706C43.7236 7.17647 44.3647 7.14706 44.3647 6.53529V6.5C44.3647 5.61176 43.8236 5.10588 42.8353 5.10588C41.7942 5.10588 41.1942 5.63529 40.9824 6.25294L38.9942 5.97059C39.4647 4.32353 40.9236 3.47647 42.8236 3.47647C44.5471 3.47647 46.4942 4.19412 46.4942 6.58235V12.6294H44.4471V11.3882H44.3765C43.9883 12.1471 43.1412 12.8118 41.7236 12.8118ZM42.2765 11.2471C43.5589 11.2471 44.3706 10.3941 44.3706 9.38824V8.32353C44.0942 8.54706 42.9765 8.68824 42.4177 8.76471C41.4647 8.9 40.753 9.24118 40.753 10.0588C40.753 10.8412 41.3883 11.2471 42.2765 11.2471ZM49.9424 0.582353V12.6294H47.813V0.582353H49.9424ZM51.3024 12.6294V3.59412H53.4318V12.6294H51.3024ZM52.373 2.31176C51.6906 2.31176 51.1377 1.79412 51.1377 1.15882C51.1377 0.517647 51.6906 0 52.373 0C53.0495 0 53.6024 0.517647 53.6024 1.15882C53.6024 1.79412 53.0495 2.31176 52.373 2.31176ZM59.3036 3.59412V5.24118H57.5212V9.91177C57.5212 10.7706 57.9506 10.9588 58.4859 10.9588C58.7506 10.9588 58.9918 10.9059 59.1095 10.8765L59.4683 12.5412C59.2389 12.6176 58.8212 12.7353 58.2153 12.7529C56.6153 12.8 55.3801 11.9647 55.3918 10.2647V5.24118H54.1095V3.59412H55.3918V1.42941H57.5212V3.59412H59.3036ZM61.5812 16C60.9989 16 60.4812 15.8941 60.193 15.7706L60.6871 14.1176C61.6165 14.3824 62.2283 14.3059 62.6342 13.3059L62.8165 12.8176L59.5401 3.59412H61.7989L63.8812 10.4176H63.9753L66.0636 3.59412L68.3401 3.60588L64.7106 13.7235C64.1989 15.1412 63.2401 16 61.5812 16ZM68.211 12.7588C67.4934 12.7588 66.911 12.1824 66.9169 11.4647C66.911 10.7588 67.4934 10.1824 68.211 10.1824C68.9052 10.1824 69.4993 10.7588 69.5052 11.4647C69.4993 12.1824 68.9052 12.7588 68.211 12.7588Z" fill="white"/>
</svg>
